<?xml version="1.0" encoding="UTF-8"?>
<svg id="Capa_2" data-name="Capa 2" xmlns="http://www.w3.org/2000/svg" viewBox="0 0 126.96 117.61">
  <defs>
    <style>
      .cls-1 {
        stroke: #006837;
        stroke-miterlimit: 10;
      }

      .cls-1, .cls-2 {
        fill: #006837;
      }
    </style>
  </defs>
  <g id="Capa_1-2" data-name="Capa 1">
    <g>
      <path class="cls-2" d="M116.27,58.39c.36,14.3-4.61,29.17-14.61,39.62-21.8,25.05-60.99,26.21-84.39,2.83C-8.09,76.69-5.14,32.15,23.64,12.05,32.66,5.66,43.77,2.57,54.77,2.89c-2.73,.11-5.44,.36-8.12,.84C3.47,11.52-10.84,68.13,20.61,97.38c19.12,18.58,50.84,19.73,70.72,1.81,11.49-10.26,18.45-25.34,18.95-40.8,0,0,6,0,6,0h0Z"/>
      <path class="cls-1" d="M103.77,89.89c13-10,18-20,21-28,3-11,2-20-3-31C111.7,8.72,94.77,.89,94.77,.89c0,0,3.42,14.22-4,28-7,13-5,25-5,25,3,22,13,33,13,33,1-2,9.9-15.86,6.95-53.43,0,0,6.05,24.43-1.95,56.43"/>
      <path class="cls-2" d="M20.87,74.51c-3.27-9-4.86-19.06-2.34-28.54,2.53-9.47,8.75-17.76,16.69-23.47,8.02-5.79,18.68-7.34,28.18-5.17,9.47,2.08,18.22,7.66,23.31,15.74l-.89,.64c-5.88-6.86-14.32-11.29-23.12-12.77-8.71-1.53-17.78,.02-25.05,5.1-7.11,4.97-12.94,12.45-15.1,20.96-2.14,8.69-.35,17.74,2.12,26.26,0,0-3.8,1.25-3.8,1.25h0Z"/>
      <path class="cls-1" d="M19.27,57.16c-.5,7.72-.2,15.61,1.5,20.72,1,3,3.66,9.15,8.89,13.95,4.07,3.75,7.11,5.05,7.11,5.05,17,7,28,2,28,2,0,0-4.42-1.2-8.95-11.23-3.05-6.77-7.05-12.77-11.05-16.77-8.51-8.51-20.53-9.94-20.53-9.94,2.47,10.06,20.53,27.94,20.53,27.94,0,0-19.81-14.88-24.91-27.94"/>
    </g>
  </g>
</svg>